<mxfile host="app.diagrams.net" modified="2022-06-22T01:42:07.309Z" agent="5.0 (Macintosh; Intel Mac OS X 10_15_7) AppleWebKit/537.36 (KHTML, like Gecko) Chrome/102.0.0.0 Safari/537.36" etag="GNzkC4F739_D1BT9kUHY" version="20.0.2" type="github">
  <diagram id="rGO7DIFyniOq8Iy0bGmA" name="Page-1">
    <mxGraphModel dx="1298" dy="1241" grid="0" gridSize="10" guides="1" tooltips="1" connect="1" arrows="1" fold="1" page="0" pageScale="1" pageWidth="827" pageHeight="1169" math="0" shadow="0">
      <root>
        <mxCell id="0" />
        <mxCell id="1" parent="0" />
        <mxCell id="FpNadwCsJ5ikljVK1AA8-8" style="edgeStyle=orthogonalEdgeStyle;rounded=0;orthogonalLoop=1;jettySize=auto;html=1;exitX=0.5;exitY=1;exitDx=0;exitDy=0;entryX=0;entryY=0.5;entryDx=0;entryDy=0;fontSize=17;endArrow=none;endFill=0;" parent="1" source="FpNadwCsJ5ikljVK1AA8-1" target="FpNadwCsJ5ikljVK1AA8-3" edge="1">
          <mxGeometry relative="1" as="geometry" />
        </mxCell>
        <mxCell id="FpNadwCsJ5ikljVK1AA8-9" style="edgeStyle=orthogonalEdgeStyle;rounded=0;orthogonalLoop=1;jettySize=auto;html=1;exitX=0.5;exitY=1;exitDx=0;exitDy=0;entryX=0;entryY=0.5;entryDx=0;entryDy=0;fontSize=17;endArrow=none;endFill=0;" parent="1" source="FpNadwCsJ5ikljVK1AA8-1" target="FpNadwCsJ5ikljVK1AA8-2" edge="1">
          <mxGeometry relative="1" as="geometry" />
        </mxCell>
        <mxCell id="FpNadwCsJ5ikljVK1AA8-10" style="edgeStyle=orthogonalEdgeStyle;rounded=0;orthogonalLoop=1;jettySize=auto;html=1;exitX=0.5;exitY=1;exitDx=0;exitDy=0;entryX=0;entryY=0.5;entryDx=0;entryDy=0;fontSize=17;endArrow=none;endFill=0;" parent="1" source="FpNadwCsJ5ikljVK1AA8-1" target="FpNadwCsJ5ikljVK1AA8-4" edge="1">
          <mxGeometry relative="1" as="geometry" />
        </mxCell>
        <mxCell id="FpNadwCsJ5ikljVK1AA8-1" value="&lt;font style=&quot;font-size: 17px;&quot;&gt;&lt;b&gt;targetObject1&lt;/b&gt;&lt;/font&gt;" style="rounded=1;whiteSpace=wrap;html=1;" parent="1" vertex="1">
          <mxGeometry x="166.96" y="95" width="140" height="40" as="geometry" />
        </mxCell>
        <mxCell id="FpNadwCsJ5ikljVK1AA8-12" style="edgeStyle=orthogonalEdgeStyle;rounded=0;orthogonalLoop=1;jettySize=auto;html=1;exitX=1;exitY=0.5;exitDx=0;exitDy=0;entryX=0.5;entryY=0;entryDx=0;entryDy=0;fontSize=17;endArrow=none;endFill=0;" parent="1" source="FpNadwCsJ5ikljVK1AA8-2" target="FpNadwCsJ5ikljVK1AA8-5" edge="1">
          <mxGeometry relative="1" as="geometry" />
        </mxCell>
        <mxCell id="FpNadwCsJ5ikljVK1AA8-2" value="&lt;font size=&quot;1&quot; style=&quot;&quot;&gt;&lt;b style=&quot;font-size: 19px;&quot;&gt;k&lt;br&gt;e&lt;br&gt;y&lt;br&gt;1&lt;/b&gt;&lt;/font&gt;" style="rounded=0;whiteSpace=wrap;html=1;rotation=90;horizontal=0;" parent="1" vertex="1">
          <mxGeometry x="58.08" y="235" width="105.92" height="25" as="geometry" />
        </mxCell>
        <mxCell id="FpNadwCsJ5ikljVK1AA8-13" style="edgeStyle=orthogonalEdgeStyle;rounded=0;orthogonalLoop=1;jettySize=auto;html=1;exitX=1;exitY=0.5;exitDx=0;exitDy=0;entryX=0.5;entryY=0;entryDx=0;entryDy=0;fontSize=17;endArrow=none;endFill=0;" parent="1" source="FpNadwCsJ5ikljVK1AA8-3" target="FpNadwCsJ5ikljVK1AA8-6" edge="1">
          <mxGeometry relative="1" as="geometry" />
        </mxCell>
        <mxCell id="FpNadwCsJ5ikljVK1AA8-3" value="&lt;font size=&quot;1&quot; style=&quot;&quot;&gt;&lt;b style=&quot;font-size: 19px;&quot;&gt;k&lt;br&gt;e&lt;br&gt;y&lt;br&gt;2&lt;br&gt;&lt;/b&gt;&lt;/font&gt;" style="rounded=0;whiteSpace=wrap;html=1;rotation=90;horizontal=0;" parent="1" vertex="1">
          <mxGeometry x="184" y="235" width="105.92" height="25" as="geometry" />
        </mxCell>
        <mxCell id="FpNadwCsJ5ikljVK1AA8-14" style="edgeStyle=orthogonalEdgeStyle;rounded=0;orthogonalLoop=1;jettySize=auto;html=1;exitX=1;exitY=0.5;exitDx=0;exitDy=0;entryX=0.5;entryY=0;entryDx=0;entryDy=0;fontSize=17;endArrow=none;endFill=0;" parent="1" source="FpNadwCsJ5ikljVK1AA8-4" target="FpNadwCsJ5ikljVK1AA8-7" edge="1">
          <mxGeometry relative="1" as="geometry" />
        </mxCell>
        <mxCell id="FpNadwCsJ5ikljVK1AA8-4" value="&lt;font size=&quot;1&quot; style=&quot;&quot;&gt;&lt;b style=&quot;font-size: 19px;&quot;&gt;k&lt;br&gt;e&lt;br&gt;y&lt;br&gt;3&lt;br&gt;&lt;/b&gt;&lt;/font&gt;" style="rounded=0;whiteSpace=wrap;html=1;rotation=90;horizontal=0;" parent="1" vertex="1">
          <mxGeometry x="298.08" y="235" width="105.92" height="25" as="geometry" />
        </mxCell>
        <mxCell id="FpNadwCsJ5ikljVK1AA8-5" value="effect1" style="shape=dataStorage;whiteSpace=wrap;html=1;fixedSize=1;fontSize=17;" parent="1" vertex="1">
          <mxGeometry x="64" y="335" width="100" height="30" as="geometry" />
        </mxCell>
        <mxCell id="FpNadwCsJ5ikljVK1AA8-6" value="effect2" style="shape=dataStorage;whiteSpace=wrap;html=1;fixedSize=1;fontSize=17;" parent="1" vertex="1">
          <mxGeometry x="184" y="335" width="100" height="30" as="geometry" />
        </mxCell>
        <mxCell id="FpNadwCsJ5ikljVK1AA8-7" value="effect3" style="shape=dataStorage;whiteSpace=wrap;html=1;fixedSize=1;fontSize=17;" parent="1" vertex="1">
          <mxGeometry x="304" y="335" width="100" height="30" as="geometry" />
        </mxCell>
        <mxCell id="FpNadwCsJ5ikljVK1AA8-15" style="edgeStyle=orthogonalEdgeStyle;rounded=0;orthogonalLoop=1;jettySize=auto;html=1;exitX=0.5;exitY=1;exitDx=0;exitDy=0;entryX=0;entryY=0.5;entryDx=0;entryDy=0;fontSize=17;endArrow=none;endFill=0;" parent="1" source="FpNadwCsJ5ikljVK1AA8-18" target="FpNadwCsJ5ikljVK1AA8-22" edge="1">
          <mxGeometry relative="1" as="geometry" />
        </mxCell>
        <mxCell id="FpNadwCsJ5ikljVK1AA8-16" style="edgeStyle=orthogonalEdgeStyle;rounded=0;orthogonalLoop=1;jettySize=auto;html=1;exitX=0.5;exitY=1;exitDx=0;exitDy=0;entryX=0;entryY=0.5;entryDx=0;entryDy=0;fontSize=17;endArrow=none;endFill=0;" parent="1" source="FpNadwCsJ5ikljVK1AA8-18" target="FpNadwCsJ5ikljVK1AA8-20" edge="1">
          <mxGeometry relative="1" as="geometry" />
        </mxCell>
        <mxCell id="FpNadwCsJ5ikljVK1AA8-17" style="edgeStyle=orthogonalEdgeStyle;rounded=0;orthogonalLoop=1;jettySize=auto;html=1;exitX=0.5;exitY=1;exitDx=0;exitDy=0;entryX=0;entryY=0.5;entryDx=0;entryDy=0;fontSize=17;endArrow=none;endFill=0;" parent="1" source="FpNadwCsJ5ikljVK1AA8-18" target="FpNadwCsJ5ikljVK1AA8-24" edge="1">
          <mxGeometry relative="1" as="geometry" />
        </mxCell>
        <mxCell id="FpNadwCsJ5ikljVK1AA8-18" value="&lt;font style=&quot;font-size: 17px;&quot;&gt;&lt;b&gt;targetObject2&lt;/b&gt;&lt;/font&gt;" style="rounded=1;whiteSpace=wrap;html=1;fillColor=#d5e8d4;strokeColor=#82b366;" parent="1" vertex="1">
          <mxGeometry x="538.88" y="95" width="140" height="40" as="geometry" />
        </mxCell>
        <mxCell id="FpNadwCsJ5ikljVK1AA8-19" style="edgeStyle=orthogonalEdgeStyle;rounded=0;orthogonalLoop=1;jettySize=auto;html=1;exitX=1;exitY=0.5;exitDx=0;exitDy=0;entryX=0.5;entryY=0;entryDx=0;entryDy=0;fontSize=17;endArrow=none;endFill=0;" parent="1" source="FpNadwCsJ5ikljVK1AA8-20" target="FpNadwCsJ5ikljVK1AA8-25" edge="1">
          <mxGeometry relative="1" as="geometry" />
        </mxCell>
        <mxCell id="FpNadwCsJ5ikljVK1AA8-20" value="&lt;font size=&quot;1&quot; style=&quot;&quot;&gt;&lt;b style=&quot;font-size: 19px;&quot;&gt;k&lt;br&gt;e&lt;br&gt;y&lt;br&gt;4&lt;br&gt;&lt;/b&gt;&lt;/font&gt;" style="rounded=0;whiteSpace=wrap;html=1;rotation=90;horizontal=0;fillColor=#d5e8d4;strokeColor=#82b366;" parent="1" vertex="1">
          <mxGeometry x="430" y="235" width="105.92" height="25" as="geometry" />
        </mxCell>
        <mxCell id="FpNadwCsJ5ikljVK1AA8-21" style="edgeStyle=orthogonalEdgeStyle;rounded=0;orthogonalLoop=1;jettySize=auto;html=1;exitX=1;exitY=0.5;exitDx=0;exitDy=0;entryX=0.5;entryY=0;entryDx=0;entryDy=0;fontSize=17;endArrow=none;endFill=0;fillColor=#d5e8d4;strokeColor=#82b366;" parent="1" source="FpNadwCsJ5ikljVK1AA8-22" target="FpNadwCsJ5ikljVK1AA8-26" edge="1">
          <mxGeometry relative="1" as="geometry" />
        </mxCell>
        <mxCell id="FpNadwCsJ5ikljVK1AA8-22" value="&lt;font size=&quot;1&quot; style=&quot;&quot;&gt;&lt;b style=&quot;font-size: 19px;&quot;&gt;k&lt;br&gt;e&lt;br&gt;y&lt;br&gt;5&lt;br&gt;&lt;/b&gt;&lt;/font&gt;" style="rounded=0;whiteSpace=wrap;html=1;rotation=90;horizontal=0;fillColor=#d5e8d4;strokeColor=#82b366;" parent="1" vertex="1">
          <mxGeometry x="555.9200000000001" y="235" width="105.92" height="25" as="geometry" />
        </mxCell>
        <mxCell id="FpNadwCsJ5ikljVK1AA8-23" style="edgeStyle=orthogonalEdgeStyle;rounded=0;orthogonalLoop=1;jettySize=auto;html=1;exitX=1;exitY=0.5;exitDx=0;exitDy=0;entryX=0.5;entryY=0;entryDx=0;entryDy=0;fontSize=17;endArrow=none;endFill=0;fillColor=#d5e8d4;strokeColor=#82b366;" parent="1" source="FpNadwCsJ5ikljVK1AA8-24" target="FpNadwCsJ5ikljVK1AA8-27" edge="1">
          <mxGeometry relative="1" as="geometry" />
        </mxCell>
        <mxCell id="FpNadwCsJ5ikljVK1AA8-24" value="&lt;font size=&quot;1&quot; style=&quot;&quot;&gt;&lt;b style=&quot;font-size: 19px;&quot;&gt;k&lt;br&gt;e&lt;br&gt;y&lt;br&gt;6&lt;br&gt;&lt;/b&gt;&lt;/font&gt;" style="rounded=0;whiteSpace=wrap;html=1;rotation=90;horizontal=0;fillColor=#d5e8d4;strokeColor=#82b366;" parent="1" vertex="1">
          <mxGeometry x="670" y="235" width="105.92" height="25" as="geometry" />
        </mxCell>
        <mxCell id="FpNadwCsJ5ikljVK1AA8-25" value="effect4" style="shape=dataStorage;whiteSpace=wrap;html=1;fixedSize=1;fontSize=17;fillColor=#d5e8d4;strokeColor=#82b366;" parent="1" vertex="1">
          <mxGeometry x="435.92" y="335" width="100" height="30" as="geometry" />
        </mxCell>
        <mxCell id="FpNadwCsJ5ikljVK1AA8-26" value="effect5" style="shape=dataStorage;whiteSpace=wrap;html=1;fixedSize=1;fontSize=17;fillColor=#d5e8d4;strokeColor=#82b366;" parent="1" vertex="1">
          <mxGeometry x="555.9200000000001" y="335" width="100" height="30" as="geometry" />
        </mxCell>
        <mxCell id="FpNadwCsJ5ikljVK1AA8-27" value="effect6" style="shape=dataStorage;whiteSpace=wrap;html=1;fixedSize=1;fontSize=17;fillColor=#d5e8d4;strokeColor=#82b366;" parent="1" vertex="1">
          <mxGeometry x="675.9200000000001" y="335" width="100" height="30" as="geometry" />
        </mxCell>
        <mxCell id="FpNadwCsJ5ikljVK1AA8-29" style="edgeStyle=orthogonalEdgeStyle;rounded=0;orthogonalLoop=1;jettySize=auto;html=1;exitX=0.5;exitY=1;exitDx=0;exitDy=0;entryX=0.5;entryY=0;entryDx=0;entryDy=0;fontSize=24;endArrow=none;endFill=0;" parent="1" source="FpNadwCsJ5ikljVK1AA8-28" target="FpNadwCsJ5ikljVK1AA8-1" edge="1">
          <mxGeometry relative="1" as="geometry" />
        </mxCell>
        <mxCell id="FpNadwCsJ5ikljVK1AA8-30" style="edgeStyle=orthogonalEdgeStyle;rounded=0;orthogonalLoop=1;jettySize=auto;html=1;exitX=0.5;exitY=1;exitDx=0;exitDy=0;entryX=0.5;entryY=0;entryDx=0;entryDy=0;fontSize=24;endArrow=none;endFill=0;" parent="1" source="FpNadwCsJ5ikljVK1AA8-28" target="FpNadwCsJ5ikljVK1AA8-18" edge="1">
          <mxGeometry relative="1" as="geometry" />
        </mxCell>
        <mxCell id="FpNadwCsJ5ikljVK1AA8-28" value="bucket" style="rounded=0;whiteSpace=wrap;html=1;fontSize=24;" parent="1" vertex="1">
          <mxGeometry x="350" y="10" width="120" height="30" as="geometry" />
        </mxCell>
        <mxCell id="FpNadwCsJ5ikljVK1AA8-32" value="" style="rounded=0;whiteSpace=wrap;html=1;fontSize=24;fillColor=none;strokeColor=#054A2C;strokeWidth=3;" parent="1" vertex="1">
          <mxGeometry x="44" y="320" width="366" height="60" as="geometry" />
        </mxCell>
        <mxCell id="FpNadwCsJ5ikljVK1AA8-33" value="" style="rounded=0;whiteSpace=wrap;html=1;fontSize=24;strokeWidth=3;fillColor=none;strokeColor=#CC0E2E;" parent="1" vertex="1">
          <mxGeometry x="420" y="80" width="370" height="335" as="geometry" />
        </mxCell>
        <mxCell id="FpNadwCsJ5ikljVK1AA8-34" value="" style="rounded=0;whiteSpace=wrap;html=1;fontSize=24;strokeWidth=3;fillColor=none;strokeColor=#15BDAC;" parent="1" vertex="1">
          <mxGeometry x="30" y="-5" width="770" height="455" as="geometry" />
        </mxCell>
        <mxCell id="FpNadwCsJ5ikljVK1AA8-38" value="deps = new Set()" style="text;html=1;strokeColor=none;fillColor=none;align=center;verticalAlign=middle;whiteSpace=wrap;rounded=0;fontSize=24;fontColor=#FF450D;" parent="1" vertex="1">
          <mxGeometry x="164" y="410" width="203.04" height="30" as="geometry" />
        </mxCell>
        <mxCell id="FpNadwCsJ5ikljVK1AA8-40" value="" style="html=1;shadow=0;dashed=0;align=center;verticalAlign=middle;shape=mxgraph.arrows2.arrow;dy=0.5;dx=14;direction=north;notch=0;fontSize=24;fontColor=#FF450D;strokeColor=#15BDAC;strokeWidth=3;" parent="1" vertex="1">
          <mxGeometry x="148.96" y="385" width="20" height="60" as="geometry" />
        </mxCell>
        <mxCell id="FpNadwCsJ5ikljVK1AA8-42" value="" style="html=1;shadow=0;dashed=0;align=center;verticalAlign=middle;shape=mxgraph.arrows2.arrow;dy=0.67;dx=24;direction=south;notch=7.5;fontSize=24;fontColor=#FF450D;strokeColor=#15BDAC;strokeWidth=3;" parent="1" vertex="1">
          <mxGeometry x="752.04" y="10" width="20" height="60" as="geometry" />
        </mxCell>
        <mxCell id="FpNadwCsJ5ikljVK1AA8-43" value="depsMap = new Map()" style="text;html=1;strokeColor=none;fillColor=none;align=center;verticalAlign=middle;whiteSpace=wrap;rounded=0;fontSize=24;fontColor=#009900;" parent="1" vertex="1">
          <mxGeometry x="492" y="20" width="260.04" height="30" as="geometry" />
        </mxCell>
        <mxCell id="FpNadwCsJ5ikljVK1AA8-45" value="" style="html=1;shadow=0;dashed=0;align=center;verticalAlign=middle;shape=mxgraph.arrows2.arrow;dy=0.63;dx=20.5;direction=north;notch=0;fontSize=24;fontColor=#FF450D;strokeColor=#15BDAC;strokeWidth=3;" parent="1" vertex="1">
          <mxGeometry x="228.08" y="460" width="21.92" height="80" as="geometry" />
        </mxCell>
        <mxCell id="FpNadwCsJ5ikljVK1AA8-46" value="bucket = new WeakMap()" style="text;html=1;strokeColor=none;fillColor=none;align=center;verticalAlign=middle;whiteSpace=wrap;rounded=0;fontSize=24;fontColor=#1A1A1A;" parent="1" vertex="1">
          <mxGeometry x="266.96" y="480" width="283.04" height="30" as="geometry" />
        </mxCell>
      </root>
    </mxGraphModel>
  </diagram>
</mxfile>
